<?xml version="1.0" encoding="UTF-8"?>
<svg id="Capa_2" data-name="Capa 2" xmlns="http://www.w3.org/2000/svg" viewBox="0 0 1189.47 2781.33">
  <defs>
    <style>
      .cls-1 {
        fill: #788a5a;
      }

      .cls-2 {
        fill: #c56547;
      }

      .cls-3 {
        fill: #dbb084;
      }

      .cls-4 {
        fill: #edd8ab;
      }

      .cls-5 {
        fill: #dcaa1b;
      }

      .cls-6 {
        fill: #c96c3e;
      }

      .cls-7 {
        fill: #233139;
      }

      .cls-8 {
        fill: #e2bb65;
      }

      .cls-9 {
        fill: #d7a776;
      }

      .cls-10 {
        fill: #e2dad5;
      }

      .cls-11 {
        fill: #dac4a5;
      }

      .cls-12 {
        fill: #ebe2dc;
      }

      .cls-13 {
        fill: #284e59;
      }

      .cls-14 {
        fill: #d6cfcc;
      }
    </style>
  </defs>
  <g id="Capa_1-2" data-name="Capa 1">
    <circle class="cls-4" cx="623.99" cy="296.65" r="296.65"/>
    <path class="cls-3" d="M757.82,300.06c-.64,5.29-1.45,10.58-2.25,15.84-3.27,21.41-6.44,39.04-8.32,60.61-1.23,14.11-7.05,27.29-13.88,39.69-6.41,11.63-13.05,23.12-19.87,34.51-4.42,7.37-9,14.79-14.53,21.33-2.83,3.36-5.92,6.49-9.37,9.25-12.26,9.82-28.01,15.94-43.63,17.6-33.53,3.54-66.58-15.55-91.58-38.19-3.48-3.15-6.85-6.46-10.08-9.92-10.69-11.43-19.87-24.48-26.45-38.57-4.05-21.76-.48-44.32,3.1-66.25,4-24.52,8.07-49.26,17.31-72.31,5.24-13.06,15.59-27.02,29.61-28.14,40.18-2.08,79.93-23.04,102.41-36.05,1.78-1.03,3.61-2.14,5.47-3.32,2.17,7.14,4.86,17.85,12.27,24.82,2.81,2.65,8.7,5.56,13.48,7.54,8.18,3.39,14.93,6.45,22.59,10.9,7.36,4.28,13.49,10.48,19.16,16.82,5.68,6.35,10.27,13.9,11.86,22.27.74,5.37,1.82,7.55,2.7,11.57Z"/>
    <path class="cls-9" d="M713.13,592.03c-9.9,10.47-21.29,19.57-33.17,27.77-11.36,7.83-23.37,14.96-36.47,19.31-23.8,7.91-50.71,5.99-73.14-5.23-7.27-3.64-14.05-8.18-20.69-12.86-15.89-11.2-31.17-23.27-45.75-36.14-5.56-4.91-11.25-10.35-14.44-16.88,4.15-2.75,8.23-5.61,12.21-8.6,3.17-2.36,6.27-4.8,9.32-7.32,2.02-1.66,4.01-3.36,5.98-5.08,5.75-5.05,11.32-10.41,15.5-16.81,8.18-12.49,10.72-26.67,11.81-41.4.23-3.18.4-6.39.55-9.62.3-7.17.48-10.06.07-17.23-.21-3.78-.37-7.48-.6-11.16,3.23,3.46,6.6,6.77,10.08,9.92,25,22.64,58.05,41.73,91.58,38.19,15.62-1.66,31.37-7.78,43.63-17.6,3.45-2.76,6.54-5.89,9.37-9.25-.64,2.36-1.18,4.76-1.69,7.2-1.41,6.77-2.72,12.42-3.85,18.37-.75,3.86-1.41,7.86-1.98,12.38-2.18,17.23-.07,34.83,5.62,51.23h0c1.24,3.58,2.65,7.09,4.22,10.53,3.27,7.14,7.23,13.95,11.84,20.28Z"/>
    <path class="cls-7" d="M501.68,559.4c-3.98,2.99-8.06,5.85-12.21,8.6-6.91,4.56-14.04,8.78-21.36,12.65,2.39-6.11,5.89-11.62,10.98-15.73,5.87-4.75,14.78-6.2,22.59-5.52Z"/>
    <path class="cls-13" d="M511,552.08c-3.05,2.52-6.15,4.96-9.32,7.32-7.81-.68-16.72.77-22.59,5.52-5.09,4.11-8.59,9.62-10.98,15.73-2.33,5.94-3.61,12.45-4.29,18.78-2.21,20.66.52,41.54,4.22,61.99,2.94,16.19,6.84,32.98,17.19,45.67-1.74,1.28-3.24,2.92-4.51,4.67-1.97,2.74-3.46,5.82-4.41,9.05h0c-33.1,16.53-75.86,26.32-107.44,45.09-32.74,19.45-68.2,71.49-108.44,159.83-21.17,46.47-52.21,95.08-64.32,144.98-11.93,49.15-23.32,98.51-32.44,148.23,4.58-82.62,14.39-261.04,16.75-280.33,8.5-69.77,20.26-139.57,43.22-206.01,9.76-28.26,33.47-45.93,55.79-65.83,12.45-11.11,25.07-22.04,37.83-32.78,5.93-4.98,11.92-9.95,18.46-14.09,7.62-4.81,15.91-8.45,24.07-12.28,31.86-14.94,62.26-33.03,90.59-53.9,3.88-2.87,7.78-5.81,12.21-7.71,13.42-5.77,33.97.56,48.41,6.07Z"/>
    <path class="cls-5" d="M505.43,718.25c-.03.18-.06.37-.09.55-.63,3.46-2.38,6.6-4.35,9.5-1.75,2.58-3.71,5.03-5.84,7.32-.25.28-.51.55-.78.83-3.6,3.74-8.92,7.23-13.65,5.1-3.76-1.69-5.3-6.23-5.58-10.34-.23-3.5.17-7.03,1.17-10.39h0c.95-3.24,2.44-6.32,4.41-9.06,1.27-1.75,2.77-3.39,4.51-4.67,1.48-1.09,3.13-1.92,4.93-2.34,3.9-.91,9.95,1.07,12.79,4.19,2.24,2.45,2.94,6.01,2.48,9.31Z"/>
    <path class="cls-12" d="M809.02,1145.48c-5.93-1.09-20.81-2.56-26.44-2.89-24.39-1.46-86.67-11.33-111.03-13.2-69.61-5.33-139.86-2.09-208.7,9.54-5.73-8.06-12.37-2.97-19.48,3.43-.05.05-.11.09-.16.14-.22.03-.43.07-.65.12,4.08-3.67,7.35-7.91,6.93-12-.51-4.98-8.11-22.86-14.39-24.38-4.75-1.16-10.98,6.68-16.63,11.74-10.65,9.54-26.04,25.59-41.27,25.59-7.31,0-13.62.71-19.17,1.77-.69-.38-1.42-.69-2.2-.94,0,0,0-.01,0-.01-.07-.02-.13-.03-.2-.05-.09-.04-.17-.07-.27-.09-.21-.06-.42-.11-.62-.16-.03,0-.06-.01-.08-.02-5.1-1.23-8.72-.08-14.73,2.42-2.79,1.17-5.69,2.63-8.48,4.43-1.52.97-3.01,2.05-4.43,3.23-.88.74-1.74,1.52-2.56,2.34-14.52,14.45-19.05,23.13-28.52,41.29-.21.4-.42.8-.61,1.18-4.7,9.19-10.3,22.15-16.41,37.53-.02.04-.03.09-.05.13-2.11,5.32-4.28,10.92-6.5,16.75-29.48,77.6-66.83,196.35-74.23,225.89-3.08,12.32-39.36,128.59-36.11,129.53-3.73-1.53-4.9-6.15-5.55-10.12-10.49-63.87-13.98-127.21-12.98-191.92.98-63.31,8.81-125.83,20.18-187.81,9.12-49.72,20.51-99.08,32.44-148.23,12.11-49.9,43.15-98.51,64.32-144.98,40.24-88.34,75.7-140.38,108.44-159.83,31.58-18.77,74.34-28.56,107.44-45.08-1,3.36-1.4,6.89-1.17,10.39.28,4.11,1.82,8.65,5.58,10.34,4.73,2.13,10.05-1.36,13.65-5.1.27-.28.53-.55.78-.83,10.01,65.95,35.83,136.9,72.76,192.4,9.2,13.83,19.16,27.18,27.69,41.44,10.02,16.77,18.02,34.74,28.93,50.95,17.51,26.03,41.9,46.62,66.95,65.49,14.73,11.1,31.37,22.22,49.78,21.29,15.48-.78,29.1-9.98,41.82-18.86,4.63-3.23,9.26-6.47,13.87-9.73,5.91,17.41,9.2,42.02,12.07,66.88Z"/>
    <path class="cls-14" d="M340.29,1264.43c-7.56,13.01-14.39,25.6-20.73,37.96h0c-7.14,13.94-13.64,27.56-19.81,41.14-13.73,30.21-25.81,60.17-39.64,92.64-24.22,56.86-52.69,111.92-85.1,164.55-2.92,4.75-7.83,10.18-12.99,8.07-3.25-.94,33.03-117.21,36.11-129.53,7.4-29.54,44.75-148.29,74.23-225.89,2.22-5.83,4.39-11.43,6.5-16.75,14.93,11.49,37.79,24.81,61.43,27.81Z"/>
    <path class="cls-10" d="M358.03,1145.34c-13.85,2.64-22.97,7.45-31.02,8.81,4.03-3.35,8.6-5.86,12.91-7.66,6.01-2.5,9.63-3.65,14.73-2.42.02.01.05.02.08.02.31.09.61.17.89.25.07.02.13.03.2.05,0,0,0,.01,0,.01.78.25,1.51.56,2.2.94Z"/>
    <path class="cls-10" d="M288.85,1125.84c.15.02.29.04.44.05-.37-.04-.4-.06-.04,0s.73.12,1.09.18c.79.14,1.57.31,2.35.48,1.92.43,3.83.94,5.72,1.47,4.68,1.31,9.32,2.8,13.93,4.33,9.95,3.29,19.81,6.83,29.71,10.24,3.96,1.36,7.91,2.74,11.94,3.89,3.1.89,4.42-3.94,1.33-4.82-8.32-2.38-16.46-5.47-24.63-8.31-9.84-3.43-19.69-6.9-29.7-9.79-3.97-1.15-8.01-2.26-12.13-2.72-1.34-.15-2.5,1.26-2.5,2.5,0,1.47,1.15,2.35,2.5,2.5h0Z"/>
    <path class="cls-10" d="M358.33,1144.4c-.78-9.05-1.11-18.13-.84-27.21s1.2-18.14,2.06-27.18c1.75-18.34,3.83-36.65,5.72-54.98,1.07-10.36,2.08-20.72,2.94-31.1.11-1.35-1.23-2.5-2.5-2.5-1.45,0-2.39,1.15-2.5,2.5-1.52,18.36-3.51,36.69-5.47,55.01-.98,9.2-1.96,18.41-2.86,27.62s-1.86,18.14-2.27,27.24c-.46,10.21-.16,20.44.72,30.61.12,1.35,1.07,2.5,2.5,2.5,1.26,0,2.62-1.15,2.5-2.5h0Z"/>
    <path class="cls-7" d="M728.54,609.26c-5.72-5.19-10.87-10.98-15.41-17.23-4.61-6.33-8.57-13.14-11.84-20.28,4.57,2.82,11.69,3.59,16.02,6.62,1.61,1.13,3.05,2.43,4.31,3.88,6.17,7.04,8.27,17.4,6.92,27.01Z"/>
    <path class="cls-12" d="M728.54,609.26c-.19,1.39-.46,2.77-.8,4.12-3.15,12.56-11.18,23.25-19.12,33.49-3.78,4.86-7.59,9.73-12.06,13.98-7.85,7.47-17.47,12.78-27.16,17.63-45.76,22.89-95.83,37.12-146.78,41.72-5.42.49-12.36.67-17.19-1.95.46-3.3-.24-6.86-2.48-9.31-2.84-3.12-8.89-5.1-12.79-4.19-1.8.42-3.45,1.25-4.93,2.34-10.35-12.69-14.25-29.48-17.19-45.67-3.7-20.45-6.43-41.33-4.22-61.99.68-6.33,1.96-12.84,4.29-18.78,7.32-3.87,14.45-8.09,21.36-12.65,3.19,6.53,8.88,11.97,14.44,16.88,14.58,12.87,29.86,24.94,45.75,36.14,6.64,4.68,13.42,9.22,20.69,12.86,22.43,11.22,49.34,13.14,73.14,5.23,13.1-4.35,25.11-11.48,36.47-19.31,11.88-8.2,23.27-17.3,33.17-27.77,4.54,6.25,9.69,12.04,15.41,17.23Z"/>
    <path class="cls-13" d="M1000.14,968.46c-1.27.46-2.55.86-3.86,1.22-.01,0-.03,0-.04,0-3.05.47-6.09,1-9.14,1.56-3.13.58-6.25,1.19-9.37,1.82-2.24.45-4.48.9-6.72,1.36-12.58,2.57-25.69,5.2-38.33,7.49-13.77,2.49-34.62,8.3-45.68,16.89-11.05,8.59-19.87,19.65-29.52,29.79-18.07,19-39.09,34.82-60.53,50-4.61,3.26-9.24,6.5-13.87,9.73-12.72,8.88-26.34,18.08-41.82,18.86-18.41.93-35.05-10.19-49.78-21.29-25.05-18.87-49.44-39.46-66.95-65.49-10.91-16.21-18.91-34.18-28.93-50.95-8.53-14.26-18.49-27.61-27.69-41.44-36.93-55.5-62.75-126.45-72.76-192.4,2.13-2.29,4.09-4.74,5.84-7.32,1.97-2.9,3.72-6.04,4.35-9.5.03-.18.06-.37.09-.55,4.83,2.62,11.77,2.44,17.19,1.95,50.95-4.6,101.02-18.83,146.78-41.72,9.69-4.85,19.31-10.16,27.16-17.63,4.47-4.25,8.28-9.12,12.06-13.98,7.94-10.24,15.97-20.93,19.12-33.49.34-1.35.61-2.73.8-4.12,1.35-9.61-.75-19.97-6.92-27.01-1.26-1.45-2.7-2.75-4.31-3.88-4.33-3.03-11.45-3.8-16.02-6.62-1.57-3.44-2.98-6.95-4.22-10.52,34.61,7.04,83.69,20.59,113.26,36.31,19.85,10.55,38.05,23.89,56.18,37.18,9.04,6.63,18.14,13.31,25.89,21.42,7.28,7.63,13.25,16.39,19.02,25.22,14.76,22.61,50.4,144.53,88.72,287.1Z"/>
    <path class="cls-10" d="M435.1,1147.95c1.46-1.19,3.23-2.17,4.94-3.21-1.36,1.07-3.19,2.22-4.94,3.21Z"/>
    <path class="cls-10" d="M442.56,1142.62c.22-.05.43-.09.65-.12-.93.82-2.01,1.53-3.13,2.21.84-.67,1.68-1.37,2.48-2.09Z"/>
    <path class="cls-10" d="M819.07,1215.77c-50.94-12.4-148.72-17.11-201.13-15.84-38.46.92-76.97,1.85-115.3,4.91-.58-4.15-1.83-9.32-5.15-13.2-1.96-2.29-13.97,9.49-16.9,10.7,4.71-3.92,9.32-8.26,11.79-13.76.91-2.04,1-4.28.9-6.51-.2-4.57-2.74-8.08-4.6-12.26-7.19-16.19-14.06-8.9-18.52-3.72,2.11-5.81,3.82-12.6.21-17.39-1.12-1.48-6.47-8.25-7.35-9.53-.06-.08-.11-.16-.17-.24,68.84-11.63,139.09-14.87,208.7-9.54,24.36,1.87,86.64,11.74,111.03,13.2,5.63.33,20.51,1.8,26.44,2.89,2.98,25.76,5.51,51.78,10.05,70.29Z"/>
    <path class="cls-12" d="M1000.66,1460.88c-11.16.42-39.25-40.31-52.67-65.37-28.45-53.06-99.09-100.26-123.99-160.72,0-.01-.01-.01-.01-.02h0c-1.69-6.18-3.33-12.5-4.92-19-4.54-18.51-7.07-44.53-10.05-70.29-2.87-24.86-6.16-49.47-12.07-66.88,21.44-15.18,42.46-31,60.53-50,9.65-10.14,18.47-21.2,29.52-29.79,11.06-8.59,31.91-14.4,45.68-16.89,12.64-2.29,25.75-4.92,38.33-7.49,2.24-.46,4.48-.91,6.72-1.36,3.12-.63,6.24-1.24,9.37-1.82-45.81,23.73-40.18,61.21-37.11,82.42.39,2.66.73,5.06.93,7.15,8.02,84.56,7.9,341.87,49.74,400.06Z"/>
    <path class="cls-12" d="M939.12,2781.33H215.49c-21.44-275.75,15.32-1147.84,104.07-1478.93h0c6.34-12.37,13.17-24.96,20.73-37.97,19.26,2.44,36.48,3.98,45.04,3.54,30.42-1.57,94.62-12.4,111.59-37.14,4.25-6.21,7.28-12.58,6.32-20.04-.16-1.25-.26-3.4-.6-5.95,38.33-3.06,76.84-3.99,115.3-4.91,52.41-1.27,150.19,3.44,201.13,15.84,1.59,6.5,3.23,12.82,4.92,18.99h0s.01.02.01.03c17.99,65.92,40.7,114.78,56.21,184.6,47.24,212.75,32.93,434.34,31.94,652.27-.35,77.45-.7,154.9-1.05,232.35-.59,128.79-1.1,258.44,20.98,385.26h0c-.74.18-1.23,1.58-1.14,2.58,1.86,20.31,3.72,40.62,5.57,60.92l2.61,28.56Z"/>
    <path class="cls-14" d="M1059.98,1126.1c-1.55,17.86-3.09,35.72-4.71,53.58v.02c-6.92,76.66-15.01,153.24-29.22,228.87-7,37.22-16.57,51.97-25.39,52.31-41.84-58.19-41.72-315.5-49.74-400.06-.2-2.09-.54-4.49-.93-7.15,14.45-4.77,28.49-11.87,42.87-17.05,20.73-7.46,42.75-11.04,63.19-19.26.4-.16.81-.33,1.21-.49,1.8,6.6,3.04,13.78,4.1,22.17,3.64,28.86,1.13,58.09-1.38,87.06Z"/>
    <path class="cls-6" d="M835.26,386.57c-2.71,17.59-17.14,30.64-26.41,45.84-3.86,6.31-6.97,13.26-12.32,18.37-12.36,11.83-22.41,16.86-39.01,21-22.44,5.6-41.23,22.68-64.09,25.83,1.13-5.95,2.44-11.6,3.85-18.37.51-2.44,1.05-4.84,1.69-7.2,5.53-6.54,10.11-13.96,14.53-21.33,6.82-11.39,13.46-22.88,19.87-34.51,6.83-12.4,12.65-25.58,13.88-39.69,1.88-21.57,5.05-39.2,8.32-60.61.8-5.26,1.61-10.55,2.25-15.84-.88-4.02-1.96-6.2-2.7-11.57-1.59-8.37-6.18-15.92-11.86-22.27-5.67-6.34-11.8-12.54-19.16-16.82-7.66-4.45-14.41-7.51-22.59-10.9-4.78-1.98-10.67-4.89-13.48-7.54-7.41-6.97-10.1-17.68-12.27-24.82,9.33-5.94,19.22-13.76,25.43-22.82,2.23-3.24,3.98-6.64,5.07-10.18,3.67-11.68,6.5-23.9,5.35-36.1-.09-.93-.2-1.86-.35-2.79,13.8,1.48,27.08,6.09,40.19,10.67,8.07,2.81,16.27,5.7,23.1,10.83,13.02,9.76,19.1,25.99,24.54,41.32,2.21,6.23,4.42,12.46,6.63,18.69,6.18,17.4,12.37,34.86,16.38,52.89,6.15,27.64-2.33,49.71,5.63,76.89,3.94,13.47,9.65,27.16,7.53,41.03Z"/>
    <path class="cls-2" d="M706.26,173.14c-1.09,3.54-2.84,6.94-5.07,10.18-6.21,9.06-16.1,16.88-25.43,22.82-1.86,1.18-3.69,2.29-5.47,3.32-22.48,13.01-62.23,33.97-102.41,36.05-14.02,1.12-24.37,15.08-29.61,28.14-9.24,23.05-13.31,47.79-17.31,72.31-3.58,21.93-7.15,44.49-3.1,66.25,6.58,14.09,15.76,27.14,26.45,38.57.23,3.68.39,7.38.6,11.16.41,7.17.23,10.06-.07,17.23-.15,3.23-.32,6.44-.55,9.62-13.27-.96-43.3-6.31-53.6-12.07-5.75-3.22-10.8-7.56-15.7-11.97-20.95-18.86-27.95-36.42-41.57-61.1-5.51-9.99-10.04-20.48-14.56-30.95-2.99-6.93-6-13.94-7.29-21.37-1.26-7.33-.81-14.83-.35-22.26,1.17-18.95-1.57-39.6,1.45-59.04,1.52-9.77,8.16-18.02,13.21-26.52,14.57-24.49,34.97-44.76,52.05-67.58,6.55-8.74,8.46-13.12,13.94-17.7,27.25-22.8,45.62-27.46,79.11-39.31,11.54-4.08,23.26-7.78,35.35-9.67,15.08-2.35,30.44-1.87,45.69-1.37,11.61.37,23.88.94,33.61,7.29,9.48,6.18,23.96,7.84,25.64,19.08.15.93.26,1.86.35,2.79,1.15,12.2-1.68,24.42-5.35,36.1Z"/>
    <path class="cls-11" d="M438.82,1142.55s0,0-.01,0c0,0,0,0,0,0-.17.12-.72.56-.51.39,0,0-.01.01-.02.02-.24.23-.42.49-.52.8-.16.3-.23.62-.22.96-.01.34.06.67.22.96.1.31.27.58.52.8l.51.39c.39.23.81.34,1.26.34l.66-.09c.42-.12.79-.33,1.1-.64,0,0,.01-.01.02-.02l-.51.39s.01-.01.02-.01c.29-.16.53-.37.7-.64.22-.24.37-.52.45-.85.1-.33.12-.66.04-1-.02-.33-.11-.64-.3-.93l-.39-.51c-.31-.31-.68-.52-1.1-.64l-.66-.09c-.45,0-.87.12-1.26.34h0Z"/>
    <path class="cls-11" d="M438.82,1142.55s0,0-.01,0c0,0,0,0,0,0-.17.12-.72.56-.51.39,0,0-.01.01-.02.02-.24.23-.42.49-.52.8-.16.3-.23.62-.22.96-.01.34.06.67.22.96.1.31.27.58.52.8l.51.39c.39.23.81.34,1.26.34l.66-.09c.42-.12.79-.33,1.1-.64,0,0,.01-.01.02-.02l-.51.39s.01-.01.02-.01c.29-.16.53-.37.7-.64.22-.24.37-.52.45-.85.1-.33.12-.66.04-1-.02-.33-.11-.64-.3-.93l-.39-.51c-.31-.31-.68-.52-1.1-.64l-.66-.09c-.45,0-.87.12-1.26.34h0Z"/>
    <path class="cls-3" d="M503.24,1210.79c-.16-1.25-.26-3.4-.6-5.95-.58-4.15-1.83-9.32-5.15-13.2-1.32-1.54-7.2,3.3-11.8,7-2.22,1.79-4.14,3.31-5.1,3.7,1.62-1.35,3.23-2.75,4.74-4.23,2.89-2.81,5.43-5.92,7.05-9.53.91-2.04,1-4.28.9-6.51-.2-4.57-2.74-8.08-4.6-12.26-7.19-16.19-14.06-8.9-18.52-3.72,2.11-5.81,3.82-12.6.21-17.39-1.12-1.48-6.47-8.25-7.35-9.53-.06-.08-.11-.16-.17-.24-5.73-8.06-12.37-2.97-19.48,3.43-.05.05-.11.09-.16.14-.03.03-.06.06-.1.08-.91.79-1.95,1.47-3.03,2.13.84-.67,1.68-1.37,2.48-2.09.11-.1.23-.21.34-.31,3.92-3.6,7-7.72,6.59-11.69-.51-4.98-8.11-22.86-14.39-24.38-3.75-.92-8.43,3.79-13.02,8.31-1.21,1.18-2.42,2.37-3.61,3.43-6.67,5.97-15.19,14.49-24.37,20.03-5.48,3.32-11.21,5.56-16.9,5.56-2.76,0,3.01-7.61,8.96-16.75-8.33-4.67-15.45-11.15-23.03-16.8-2.68,3.19-5.45,6.72-8.21,10.36-4.92,6.49-9.81,13.32-14.17,19.12-3.55,4.73-6.74,8.78-9.31,11.42-1.83,1.88-3.34,3.05-4.43,3.23-.88.74-1.74,1.52-2.56,2.34-14.52,14.45-19.05,23.13-28.52,41.29-.21.4-.42.8-.61,1.18-5.93,11.35-7.81,14.9-16.41,37.53-.02.04-.03.09-.05.13,14.93,11.49,37.79,24.81,61.43,27.81,19.26,2.44,36.48,3.98,45.04,3.54,24.07-1.24,69.3-8.28,95.53-23.43,6.92-3.99,12.52-8.55,16.06-13.71,1.81-2.64,3.39-5.3,4.54-8.07,1.56-3.75,2.33-7.68,1.78-11.97ZM440.04,1144.74c-1.36,1.07-3.19,2.22-4.94,3.21,1.46-1.19,3.23-2.17,4.94-3.21Z"/>
    <path class="cls-10" d="M1052.39,933.2c-.67-1.74-1.31-3.48-1.92-5.24-.21-.62-.57-1.16-1.15-1.49-.54-.31-1.33-.45-1.93-.25s-1.19.57-1.49,1.15-.47,1.29-.25,1.93c.61,1.76,1.25,3.5,1.92,5.24.24.63.55,1.14,1.15,1.49.54.31,1.33.45,1.93.25s1.19-.57,1.49-1.15.49-1.31.25-1.93h0Z"/>
    <path class="cls-3" d="M1138.66,984.74c-6.58,7.75-18.01,8.34-27.97,10.34-18.9,3.8-35.59,14.45-53.43,21.79-.4.16-.81.33-1.21.49-20.44,8.22-42.46,11.8-63.19,19.26-14.38,5.18-28.42,12.28-42.87,17.05-3.07-21.21-8.7-58.69,37.11-82.42,3.05-.56,6.09-1.09,9.14-1.56.01,0,.03,0,.04,0,1.31-.36,2.59-.76,3.86-1.22,2.49-.9,4.9-2.01,7.22-3.31,3.57-2.02,6.43-5.21,9.36-8.19,3.22-3.27,6.52-6.29,10.92-7.23-4.72-6.81-9.5-13.74-12.14-21.59-.77-2.28-1.35-4.67-1.67-7.09h0c-.36-2.76-.4-5.54-.04-8.25.41-3.07,1.33-6.04,2.88-8.75,3.32-5.84,12-9.82,16.59-4.91,1.73,1.85,2.34,4.45,3.1,6.87,2.53,8.13,7.28,15.29,11.7,22.61-1.6-4.56-3.01-9.19-4.24-13.86-1.21-4.59-2.75-9.93-3.78-15.26-2.01-10.27-2.12-20.51,5.7-25.28.02-.02.12-.01.12-.01,2.25-2.04,5.35-2.72,8.4-2.35,1.98.23,3.94.89,5.64,1.91,4.31,2.57,7.25,6.87,9.88,11.15,3.36,5.45,6.41,11.09,9.15,16.87-1.2-6.25-2.62-14.45-2.1-17.06.77-3.86,3.38-7.63,7.21-8.57,4.13-1,8.24,1.42,11.76,3.79,6.01,4.07,12.02,8.44,16.17,14.4,1.44,2.08,2.63,4.31,3.59,6.63.66,1.57,1.21,3.18,1.67,4.83.23-1.08.53-2.2.98-3.16,1.22-2.61,3.5-4.06,8.26-.65,2.76,1.97,5.44,3.98,7.2,6.87.54.89,1.06,1.8,1.54,2.71,7.78,14.65,8.48,32.17,8.86,48.88.2,8.49.08,17.81-5.41,24.28Z"/>
    <path class="cls-8" d="M517.7,1247.38c-4.34-6.43-10.16-15.32-16.24-24.62-1.15,2.77-2.73,5.43-4.54,8.07-3.54,5.16-9.14,9.72-16.06,13.71,9.64,11.8,19.15,23.94,28.41,36.72,9.26,11.93,70.19,85.84,77.84,92.65,4.78,4.25,11.39,8.77,17,5.69-.55-8.63-64.31-99.49-86.41-132.22ZM485.33,1198.11c-1.51,1.48-3.12,2.88-4.74,4.23.96-.39,2.88-1.91,5.1-3.7-.11-.18-.23-.35-.36-.53ZM442.56,1142.62c-.8.72-1.64,1.42-2.48,2.09,1.08-.66,2.12-1.34,3.03-2.13-.07-.09-.14-.18-.21-.27-.11.1-.23.21-.34.31ZM440.04,1144.74c-1.71,1.04-3.48,2.02-4.94,3.21,1.75-.99,3.58-2.14,4.94-3.21Z"/>
    <path class="cls-8" d="M415.28,1104.45c-2.69-7.7-9.85-23.2-10.55-31.32-4.77-54.81-3.1-118.09-18.11-175.39-.69-2.63-2.62-5.94-5.18-5.01-1.38.5-2.02,2.06-2.47,3.46-6.74,21.05-5.86,43.67-4.92,65.74.98,23.05,1.96,46.1,2.94,69.15-3.75-5.89-7.48-11.79-11.2-17.7-2.41-15.64-4.21-31.38-4.75-47.19-1.19-35.06,3.75-70.72-4.14-104.9-.66-2.89-1.77-6.17-4.55-7.21-4.76-1.78-8.47,4.3-9.86,9.18-8.2,28.89-13.18,58.69-14.81,88.67-.8-1.32-1.61-2.64-2.41-3.97-1.76-39.29-3.51-78.58-5.27-117.88-.87-19.34-1.75-38.78-5.6-57.76-6.11-.34-9.42,6.91-10.93,12.84-8.06,31.59-13.92,63.74-17.51,96.14-.31-.53-.62-1.05-.91-1.59h0c-1.97-27.68-2.02-55.5-.14-83.17,2.43-35.81,8.02-72.39-.96-107.14-.44-1.72-1.2-3.7-2.92-4.09-2.06-.47-3.7,1.67-4.69,3.54-19.24,36.36-24.78,83.64-27,125.42-2.94-5.64-5.84-11.3-8.71-16.97.63-29.7,3.21-59.37,7.68-88.75,4.67-30.66,11.44-61.65,7.42-92.41-.31-2.38-1.05-5.2-3.33-5.93-2.2-.71-4.4,1.01-5.96,2.72-7.41,8.12-11.5,18.67-15.09,29.07-10.02,28.95-17.45,58.8-22.19,89.08-1.31-2.94-2.6-5.89-3.88-8.85,7.71-56,13.54-112.26,17.48-168.64,1.07-15.37,2-30.89-.22-46.13-.72-4.9-4.24-11.21-8.79-9.26-1.39.59-2.34,1.86-3.2,3.1-15.13,21.67-22.01,47.87-28.62,73.46-4.47,17.33-8.94,34.66-13.43,51.99-1.2-3.59-2.39-7.18-3.56-10.77,12.65-46.44,25.19-92.92,36.8-139.63,2.94-11.84,5.84-23.82,5.9-36.01.01-2.02-.19-4.32-1.79-5.57-3.05-2.38-7.08,1.33-9.13,4.62-18.93,30.28-37.68,60.67-56.24,91.17-.31-1.22-.61-2.43-.91-3.66,12.09-28.23,24.2-56.47,36.3-84.7,9.1-21.24,18.29-42.82,21.29-65.73.23-1.74.36-3.7-.74-5.07-2.58-3.21-7.53.33-9.89,3.7-22.44,31.96-41.91,65.99-58.1,101.53-.69-3.39-1.35-6.79-1.99-10.19,21.71-61.35,50.08-120.16,77.89-179.03,3.2-6.77,6.3-15.13,2.03-21.29-6.71,1.24-12.02,6.26-16.58,11.34-12.31,13.7-22.2,29.35-32.03,44.93-14.42,22.86-28.85,45.72-43.28,68.58-.13-.94-.25-1.88-.36-2.82,26.91-66.77,57.33-132.12,91.08-195.7,9.35-17.61,18.99-35.16,25.93-53.84,1.39-3.74,2.07-9.05-1.56-10.69-2.8-1.27-5.9.89-8.16,2.98-26.9,24.77-43.88,58.21-60.31,90.89-12.29,24.46-24.58,48.92-36.87,73.38-5.49,10.91-10.99,21.86-15.71,33.11,13.45-63.95,36.22-125.94,67.36-183.39,8.29-15.29,17.48-31.69,15.25-48.94-.26-2.03-.74-4.16-2.17-5.63-2.86-2.95-7.81-1.78-11.52-.01-14.89,7.1-26.02,20.35-34.28,34.63-12.27,21.2-19.07,45.05-25.73,68.63-4.24,15.04-8.46,30.08-12.64,45.13-.02-29.36,1.03-58.71,3.17-87.99.26-3.61.36-7.53.03-11.34,2.62-15.17,5.23-30.34,7.84-45.51,1.81-10.46,3.61-21.04,2.81-31.62-5.32.06-9.17,4.95-12.01,9.46-25.67,40.79-37.22,90.19-32.84,138.14-2.2,22.46-2.26,45.35-1.1,68.17-9.99-23.39-20.28-46.66-32.34-69.05-5.18-9.61-11.1-19.47-20.54-24.96,1.39,62.44,22.97,124.25,60.58,174.09.66,5.21,1.36,10.4,2.08,15.6-17.78-28.69-37.14-56.39-57.98-82.94-5.33-6.77-11.21-13.81-19.41-16.47-1.97,4.22-.92,9.17.29,13.67,15.78,58.68,52.02,109.46,88.9,157.75h0c.9,4.79,1.83,9.55,2.77,14.31-28.41-30.59-56.81-61.2-85.21-91.8-3.23-3.49-7.07-7.24-11.82-7.15,1.97,17.26,9.41,33.39,17.54,48.74,25.19,47.58,58.14,91.04,97.14,128.16.97,3.87,1.97,7.73,2.99,11.58-30.02-27.05-60.03-54.11-90.05-81.17-3.05-2.74-7.2-5.66-10.86-3.84-.12,11.2,6.19,21.36,12.52,30.61,30.37,44.34,66.49,84.74,107.16,119.87,3.52,11.34,7.19,22.62,10.98,33.87-45.25-25.71-87.01-57.58-123.74-94.47,4.06,19.33,15.66,36.24,28.61,51.15,28.72,33.06,65.52,59.05,106.25,75.13,4.5,12.45,9.18,24.85,14.01,37.18-48.26-25.17-91.61-59.05-134.55-92.66-2.33,6.67,2.67,13.49,7.48,18.66,14.61,15.67,30.66,29.91,46.69,44.12,29.96,26.57,60.66,53.58,96.9,70.24h0c3.76,8.87,7.62,17.68,11.57,26.46-42.65-24.56-85.3-49.11-127.94-73.66,16.27,29.57,40.3,54.32,66.94,75.05,25.73,20.03,59.68,39.97,88.38,56.37h0c2.4,4.83,4.83,9.63,7.29,14.42-41.21-18.94-80.91-41.19-118.57-66.47-10.07-6.76-20.18-13.83-31.71-17.59-1.5,3.67.24,7.82,2.24,11.23,5.4,9.23,12.85,17.05,20.28,24.72,22.03,22.73,44.75,45.1,70.99,62.79,24.43,16.47,52.27,28.8,81.48,31.95,5.93,10.82,11.98,21.57,18.12,32.27-10.89-3.04-21.52-7.9-31.79-12.7-27.2-12.71-54.4-25.43-81.6-38.14-6.66-3.11-13.68-6.3-21.02-5.85,3.59,11.29,12.9,19.66,21.89,27.38,19.43,16.69,39.33,33.13,61.84,45.35,21.76,11.81,46.28,19.57,70.97,18.6,7.22,12.05,14.55,24.03,21.97,35.96-1.69-.44-3.38-.92-5.05-1.4-28.05-8.1-55.31-18.94-81.27-32.3-13.8-7.1-28.89-15.17-44-11.63,8,16.61,26.93,24.16,42.42,34.16,10.14,6.56,19.25,14.64,29.47,21.08,8.64,5.44,17.98,9.66,27.29,13.86,21.7,9.78,43.39,19.56,65.09,29.34,3.35,5.13,6.73,10.26,10.13,15.38-30.96-7.6-61.03-18.77-89.42-33.23-9.94-5.07-20.27-10.68-31.43-10.37-1.07,7.3,5.74,13.12,11.82,17.3,16.45,11.3,33.2,22.4,51.55,30.25,13.53,5.79,26.48,16.57,40.2,21.89,5.82,2.26,10.98,5.61,15.93,9.32,7.58,5.65,14.7,12.13,23.03,16.8.06.03.12.07.18.1,2.56,3.75,5.15,7.45,7.76,11.09,9.18-5.54,17.7-14.06,24.37-20.03,1.19-1.06,2.4-2.25,3.61-3.43-2.3-3.3-4.57-6.66-6.8-10.1ZM122.5,328.3c-.09.4-.17.8-.25,1.2-.02-.17-.03-.33-.04-.5.09-.23.18-.47.29-.7Z"/>
    <path class="cls-1" d="M1189.25,744.62c-.66-3.28-2.71-6.1-4.76-8.74-9.5-12.24-20.4-23.38-32.42-33.15-1.24-3.53-2.61-7.01-4.11-10.43,9.45-.6,18.7-5.22,24.49-12.75,1.52-1.97,2.88-4.44,2.25-6.86-.47-1.83-1.98-3.18-3.41-4.41-13.86-11.98-29.4-24.44-47.72-24.85-4.21-.1-8.49.49-12.37,2.08-5.13-2.94-10.63-5.28-16.1-7.57-1.56-.65-3.11-1.3-4.67-1.95,10.07-4.63,20.08-9.39,30.02-14.29,2.84-1.4,6.2-4.05,5-6.98-.49-1.2-1.65-1.98-2.78-2.61-12.28-6.89-27.49-5.42-41.19-2.18-8.09,1.91-16.05,4.37-23.82,7.34-2.69,1.04-5.39,2.15-7.96,3.48-5.24-1.64-10.52-3.13-15.85-4.43,8.59-7.11,16.94-14.52,25.02-22.21,1.18-1.12,2.46-2.73,1.77-4.21-.4-.83-1.32-1.28-2.18-1.61-10.93-4.21-23.25-.74-34.03,3.83-11.81,5.01-23.06,11.32-33.48,18.77-6.56.02-13.1.49-19.55,1.47,2.1-4.75,4.04-9.56,5.7-14.48,1.47-4.36,2.72-9.02,1.82-13.54-.36-1.76-1.12-3.56-2.62-4.54-2.97-1.94-6.84.2-9.61,2.41-11.91,9.55-21.75,21.66-28.66,35.28-1.13,2.23-2.18,4.54-3.06,6.9-1.68.88-3.34,1.81-4.98,2.77.36-10.1.18-20.23-.53-30.31-.15-2-.43-4.24-2-5.5-1.47-1.18-3.69-1.05-5.35-.15-1.67.9-2.9,2.41-4.04,3.93-10.59,14.17-16.43,35.2-16.23,53.29-2.49,2.29-4.94,4.65-7.35,7.07-1.18-10.34-3.6-20.54-7.21-30.31-1.03-2.8-2.96-6.1-5.93-5.8-2.62.27-4.01,3.17-4.8,5.68-5.54,17.49-6.82,36.31-3.73,54.39-2.58,3.07-5.13,6.16-7.64,9.25-1.25,1.53-2.5,3.07-3.74,4.62-4.75-12.78-9.86-25.43-15.3-37.92-.65-1.5-1.5-3.17-3.09-3.56-2.23-.56-4.07,1.75-5.08,3.82-7.55,15.4-6.33,33.55-3.8,50.52,1.31,8.76,3.04,17.75,7.22,25.45-1.15,4.62-2,9.32-2.65,14.05-5.35-7.67-11.08-15.07-17.15-22.18-.98-1.15-2.18-2.39-3.69-2.37-2.72.03-3.56,3.69-3.45,6.41.78,18.59,6.68,36.93,16.88,52.48,1.78,2.71,3.92,5.49,6.68,7,.76,8.3,2.04,16.65,3.75,25-8.95-10.39-18.76-20.04-29.3-28.82-3.02-2.51-8.24-4.65-10.21-1.25-.57.99-.62,2.18-.62,3.32-.02,18.35,8.32,36.09,20.6,49.73,9.6,10.64,21.45,18.98,34.17,25.67,2.35,6,4.87,11.93,7.52,17.78-10.12-6.44-20.49-12.48-31.06-18.14-2.51-1.35-6.07-2.49-7.84-.25-1.19,1.52-.74,3.7-.22,5.56,2.47,8.98,5.02,18.14,10.15,25.91,6.64,10.06,17.01,16.94,27.09,23.54,4.39,2.88,8.87,5.8,13.93,7.22,3.66,1.04,7.72,1.17,11.27-.02h.01c1.29,2.13,2.6,4.23,3.93,6.31-5.53.58-11,1.76-16.28,3.51-4.24,1.4-9.07,4.23-8.89,8.68.09,2.27,1.55,4.25,3.2,5.81,5.05,4.79,12.21,6.86,19.17,6.96,6.96.1,13.81-1.6,20.51-3.48,3.6-1.02,7.22-2.1,10.73-3.43,2.4-.9,4.74-1.92,6.99-3.1-.94,1.37-1.84,2.78-2.68,4.21-2.22,3.71-4.15,7.59-5.78,11.59-.73,1.83-1.33,4.12-.02,5.58.62.7,1.55,1.03,2.46,1.23,4.95,1.09,10.02-.89,14.62-3.03,7.16-3.33,14.08-7.15,20.76-11.37,3.98.23,7.96.36,11.95.41-2.03,3.64-3.63,7.51-4.76,11.52-.24.85-.45,1.79-.1,2.6.77,1.72,3.25,1.51,5.06.97,12.22-3.64,23.8-9.37,34.13-16.85.01.02.01,0,.01,0,5.39-.61,10.75-1.39,16.09-2.33-.8,2.91-1.35,5.89-1.63,8.9,3.22-3.27,6.52-6.29,10.92-7.23-4.72-6.81-9.5-13.74-12.14-21.59-.77-2.28-1.35-4.67-1.67-7.09-2.45.49-4.9.92-7.37,1.32-14.61-11.23-26.27-26.32-40.43-38.33-4.54-3.85-9.43-7.43-15-9.51-1.37-.51-3.13-.84-4.11.25-.77.84-.65,2.14-.47,3.26,2.74,17.23,9.86,33.75,20.52,47.56-3.78-.06-7.55-.3-11.3-.78-1.53-.19-3.05-.43-4.56-.69h-.01c-11.05-21.41-22.1-42.82-33.16-64.23-1.33-2.58-3.28-5.55-6.19-5.44-3.41.12-4.97,4.24-5.56,7.6-2.36,13.39-2.85,27.1-1.47,40.63-3.53-5.06-6.84-10.27-9.91-15.62.42-31.49,11.37-62.43,9.5-93.88-.1-1.69-.41-3.68-1.92-4.47-1.91-1-4.09.66-5.56,2.24-11.28,12.15-19.53,27.07-23.94,43.04-1.96-7.27-3.55-14.63-4.75-22.06,10.64-21.33,21.29-42.67,31.94-64,1.74-3.49,3.52-7.19,3.24-11.07-.07-.97-.3-1.98-.95-2.71-1.64-1.83-4.65-.79-6.79.44-11.2,6.45-21.25,14.86-29.6,24.71.28-3.31.63-6.61,1.06-9.91,16.09-13.13,31.79-26.75,47.05-40.85,2.35-2.18,4.91-5.36,3.47-8.23-1.03-2.05-3.61-2.7-5.89-2.96-9.04-1.02-18.36.66-26.5,4.71,4.42-5.81,9.51-11.14,15.09-15.95,5.73.87,11.8,1.16,17.61,1.9,9.22,1.17,20.63,5.42,29.89,4,11.35-1.73,4.06-9.58-1.54-15.4-2.97-3.09-7.2-7.61-11.91-11.67,1.42-.64,2.86-1.26,4.31-1.86,2.7,1.31,5.27,2.95,7.75,4.65,12.49,8.52,24.21,19.01,38.78,23.05,1.95.54,4.38.82,5.68-.72.64-.76.84-1.81.88-2.8.2-4.04-1.56-7.9-3.41-11.49-4.33-8.38-9.4-16.37-15.14-23.86,4.4-1.13,8.83-2.18,13.25-3.17,5.78,6.51,11.56,13.03,17.34,19.54,6.51,7.34,13.07,14.72,20.79,20.77,2.06,1.62,4.75,3.22,7.15,2.16,2.59-1.15,3.07-4.6,2.88-7.42-.49-7.43-3-14.55-5.48-21.57-2.03-5.74-4.07-11.48-6.09-17.23,1.8.22,3.59.53,5.36.9,7,15.74,18.91,35.8,27.8,49.79,1.49,2.34,3.08,4.74,5.44,6.19,2.36,1.45,5.7,1.68,7.72-.22,1.71-1.6,2.01-4.16,2.2-6.5.8-9.63,1.55-19.26,2.24-28.9,2.91,1.9,5.76,3.92,8.52,6.04-.67,15.33.44,30.75,3.31,45.83.24,1.25.57,2.63,1.61,3.37,1.99,1.39,4.59-.55,6.13-2.43,5.59-6.81,9.9-14.67,12.68-23.03,1,1.34,1.95,2.7,2.87,4.09-3.97,16.04-5.38,32.71-4.17,49.18.14,1.92.53,4.15,2.24,5.03,1.85.95,4.04-.31,5.66-1.61,4.12-3.29,7.74-7.2,10.74-11.55.75,6.9.99,13.89,1.22,20.87h0c-12.15,14.06-22.99,29.23-32.34,45.27-.68,1.18-1.32,2.81-.37,3.78.89.9,2.39.47,3.55-.03,10.1-4.29,20.19-8.58,30.28-12.86-.18,5.17-.69,10.29-1.77,15.36-.67,3.13-1.55,6.21-2.59,9.23-16.35,2.92-31.86,10.46-44.23,21.56-2.31,2.06-4.56,4.33-5.75,7.19s-1.09,6.45.99,8.74c2.3,2.53,6.14,2.78,9.55,2.62,7.24-.32,14.44-1.68,21.31-4.02.54-.18,1.08-.37,1.62-.56-2.83,5.33-5.87,10.52-9.37,15.43-7.9-.61-15.74-2.51-23.67-3.24-5.79-.54-11.96-.31-17.52,1.34,1.98.23,3.94.89,5.64,1.91,4.31,2.57,7.25,6.87,9.88,11.15,3.36,5.45,6.41,11.09,9.15,16.87-1.2-6.25-2.62-14.45-2.1-17.06.77-3.86,3.38-7.63,7.21-8.57,4.13-1,8.24,1.42,11.76,3.79,6.01,4.07,12.02,8.44,16.17,14.4,1.44,2.08,2.63,4.31,3.59,6.63.35-.4.7-.8,1.04-1.2.52.97,1.06,1.92,1.61,2.87,1.22-2.61,3.5-4.06,8.26-.65,2.76,1.97,5.44,3.98,7.2,6.87.54.89,1.06,1.8,1.54,2.71.94-11.66.08-23.45-2.51-34.86,3.11-5.42,5.93-11.02,8.49-16.75,1.73,3.17,3.67,6.23,5.77,9.17,1.52,2.11,3.21,4.22,5.54,5.37,2.33,1.14,5.47,1.02,7.18-.93,1.12-1.28,1.44-3.07,1.56-4.77.28-3.62-.09-7.26-.61-10.85-1.52-10.42-4.39-20.56-7.75-30.55,1.77-6.29,3.31-12.68,4.59-19.13,3.95,5.49,10.35,9.65,17.06,9.05,1.11-.1,2.26-.34,3.12-1.05,2.06-1.69,1.51-4.93.72-7.47-4.12-13.34-9.67-26.24-16.52-38.41.15-4.95.14-9.89-.05-14.82,1.31,1.06,2.73,1.98,4.25,2.73,5.01,2.46,11.19,2.83,16.12.22s8.19-8.44,7.08-13.91ZM1040.04,899.5c-10.04-4.75-20.59-8.41-31.42-10.87-4.14-.94-8.41-1.72-12.62-1.15.29,5.59,3.87,10.43,7.54,14.66,3.23,3.72,6.66,7.28,10.25,10.66.41-3.07,1.33-6.04,2.88-8.75,3.32-5.84,12-9.82,16.59-4.91,1.73,1.85,2.34,4.45,3.1,6.87,2.53,8.13,7.28,15.29,11.7,22.61-1.6-4.56-3.01-9.19-4.24-13.86-1.21-4.59-2.75-9.93-3.78-15.26Z"/>
  </g>
</svg>