<?xml version="1.0" encoding="UTF-8"?>
<svg id="Capa_2" data-name="Capa 2" xmlns="http://www.w3.org/2000/svg" viewBox="0 0 404 404">
  <defs>
    <style>
      .cls-1 {
        fill: #ec681c;
      }

      .cls-1, .cls-2 {
        stroke-width: 0px;
      }

      .cls-2 {
        fill: #fff;
      }
    </style>
  </defs>
  <g id="Capa_1-2" data-name="Capa 1">
    <rect class="cls-2" width="404" height="404"/>
    <g id="Capa_2-2" data-name="Capa 2">
      <g id="Capa_1-2" data-name="Capa 1-2">
        <path class="cls-1" d="m312.19,201.58c-2.34-2.44-4.26-3.37-7-3.37-9.13,0-16.4,7.93-27.7,30.25-10.61,21-16.22,26.16-23.8,22.1-4.69-2.51-4.84-5.61-3.79-80.13,1.44-102.71,1.39-107.59-1-113.89-2.72-7.06-7.79-11.31-12.57-10.53-8.37,1.35-11.94,6.47-13.85,19.85-.64,4.52-1.41,34-1.69,65.46-.36,39.39-.93,58.62-1.83,61.64-2.6,8.65-10.58,9.89-14,2.18-1.66-3.72-1.85-11.26-1.88-74.29,0-66.09-.14-70.44-2.1-74.94-2.17-5-6.35-8-10.94-8-3.84-.05-9.46,3.81-11.55,7.82-6.1,11.78-7,22.8-7.23,83.44-.16,53.93-1.52,74.61-4.89,74.61-4.13,0-5.18-9.13-8.41-73.5-2.47-49.1-3.79-58.92-8.69-64.74-4.08-4.85-9.64-7.06-13.63-5.41-4.89,2-9.15,11.06-9.77,20.7-.55,8.56,1.4,64.13,3.17,90.1,2.19,32.21,2.46,43.34,1.16,48.09-2.09,7.64-6.94,7.58-10.95-.13-1.52-2.91-2-12.09-3-61.88-.92-41.98-1.67-59.15-2.67-60.91-2.16-3.89-5.92-5.91-11-5.91-4.06,0-5.11.53-7.64,3.85-5.85,7.71-5.88,8.04-6.24,88.82-.3,67.68-.14,76.14,1.65,87,4.14,25.09,11.73,43.8,24.93,61.38,13.45,17.93,29.9,29,49.88,33.6,10.27,2.36,27.86,1.3,39.54-2.38,19.16-6,37.39-17.64,54.69-34.93,19.23-19.19,35.91-50.48,50.65-95,6.54-19.67,6.94-25.95,2.15-30.95Zm-99.46,49.57c-3.5,1-7.4,2.17-8.67,2.69-6.2,2.52-17.36,36.69-20,61.3-1.9,17.48-4.61,7.46-3.46-12.74.82-14.27,2.69-23.14,7.58-36,1.93-5.06,3.21-9.51,2.84-9.87s-8.39.44-17.83,1.79-18.36,2.24-19.83,2c-2.47-.44-2.38-.59,1.33-2.26,4.28-1.93,25.37-7.66,35.83-9.73,6.17-1.22,6.63-1.57,12.74-9.5,3.49-4.53,7-8.51,7.9-8.84,3.44-1.32,3.46,1,0,7.25-2,3.6-3.28,6.88-2.87,7.28s4,.09,8-.71c4-.8,7.66-1.06,8.13-.59,1.58,1.54-5.23,6.15-11.69,7.93h0Z"/>
      </g>
    </g>
  </g>
</svg>