<?xml version="1.0" encoding="utf-8"?>
<!-- Generator: Adobe Illustrator 27.9.0, SVG Export Plug-In . SVG Version: 6.00 Build 0)  -->
<svg version="1.1" id="Capa_2_00000085941712387069083580000009677062047610081153_"
	 xmlns="http://www.w3.org/2000/svg" xmlns:xlink="http://www.w3.org/1999/xlink" x="0px" y="0px" viewBox="0 0 404 404"
	 style="enable-background:new 0 0 404 404;" xml:space="preserve">
<style type="text/css">
	.st0{fill:#FFFFFF;}
	.st1{fill:#EC681C;}
</style>
<g id="Capa_1-2_00000129203151170643638910000015974885941047151025_">
	<rect y="0" class="st0" width="404" height="404"/>
	<g id="Capa_2-2">
		<g id="Capa_1-2">
			<path class="st1" d="M288.5,201.7c-1.8-1.9-3.3-2.6-5.5-2.6c-7.2,0-12.9,6.2-21.7,23.7c-8.3,16.5-12.7,20.5-18.7,17.3
				c-3.7-2-3.8-4.4-3-62.9c1.1-80.6,1.1-84.4-0.8-89.4c-2.1-5.5-6.1-8.9-9.9-8.3c-6.6,1.1-9.4,5.1-10.9,15.6
				c-0.5,3.5-1.1,26.7-1.3,51.4c-0.3,30.9-0.7,46-1.4,48.4c-2,6.8-8.3,7.8-11,1.7c-1.3-2.9-1.5-8.8-1.5-58.3
				c0-51.9-0.1-55.3-1.6-58.8c-1.7-3.9-5-6.3-8.6-6.3c-3,0-7.4,3-9.1,6.1c-4.8,9.2-5.5,17.9-5.7,65.5c-0.1,42.3-1.2,58.5-3.8,58.5
				c-3.2,0-4.1-7.2-6.6-57.7c-1.9-38.5-3-46.2-6.8-50.8c-3.2-3.8-7.6-5.5-10.7-4.2c-3.8,1.6-7.2,8.7-7.7,16.2
				c-0.4,6.7,1.1,50.3,2.5,70.7c1.7,25.3,1.9,34,0.9,37.7c-1.6,6-5.4,5.9-8.6-0.1c-1.2-2.3-1.6-9.5-2.4-48.6
				c-0.7-32.9-1.3-46.4-2.1-47.8c-1.7-3.1-4.6-4.6-8.6-4.6c-3.2,0-4,0.4-6,3c-4.6,6.1-4.6,6.3-4.9,69.7c-0.2,53.1-0.1,59.7,1.3,68.3
				c3.2,19.7,9.2,34.4,19.6,48.2c10.6,14.1,23.5,22.8,39.1,26.4c8.1,1.9,21.9,1,31-1.9c15-4.7,29.3-13.8,42.9-27.4
				c15.1-15.1,28.2-39.6,39.7-74.5C291.9,210.5,292.2,205.6,288.5,201.7L288.5,201.7z M210.4,240.6c-2.7,0.8-5.8,1.7-6.8,2.1
				c-4.9,2-13.6,28.8-15.7,48.1c-1.5,13.7-3.6,5.9-2.7-10c0.6-11.2,2.1-18.2,5.9-28.2c1.5-4,2.5-7.5,2.2-7.7
				c-0.3-0.3-6.6,0.3-14,1.4c-7.4,1.1-14.4,1.8-15.6,1.6c-1.9-0.3-1.9-0.5,1-1.8c3.4-1.5,19.9-6,28.1-7.6c4.8-1,5.2-1.2,10-7.5
				c2.7-3.6,5.5-6.7,6.2-6.9c2.7-1,2.7,0.8,0,5.7c-1.6,2.8-2.6,5.4-2.3,5.7c0.3,0.3,3.1,0.1,6.3-0.6c3.1-0.6,6-0.8,6.4-0.5
				C220.8,235.6,215.5,239.2,210.4,240.6L210.4,240.6z"/>
		</g>
	</g>
</g>
</svg>
