<?xml version="1.0" encoding="UTF-8" standalone="no"?>
<!-- Created with Inkscape (http://www.inkscape.org/) -->

<svg
   width="10.301825mm"
   height="10.301826mm"
   viewBox="0 0 10.301825 10.301826"
   version="1.1"
   id="svg1"
   xml:space="preserve"
   xmlns:inkscape="http://www.inkscape.org/namespaces/inkscape"
   xmlns:sodipodi="http://sodipodi.sourceforge.net/DTD/sodipodi-0.dtd"
   xmlns="http://www.w3.org/2000/svg"
   xmlns:svg="http://www.w3.org/2000/svg"><sodipodi:namedview
     id="namedview1"
     pagecolor="#ffffff"
     bordercolor="#000000"
     borderopacity="0.25"
     inkscape:showpageshadow="2"
     inkscape:pageopacity="0.0"
     inkscape:pagecheckerboard="0"
     inkscape:deskcolor="#d1d1d1"
     inkscape:document-units="mm"><inkscape:page
       x="0"
       y="0"
       width="10.301825"
       height="10.301826"
       id="page2"
       margin="0"
       bleed="0" /></sodipodi:namedview><defs
     id="defs1" /><g
     inkscape:label="Layer 1"
     inkscape:groupmode="layer"
     id="layer1"
     transform="translate(12.325602,-227.50426)"><rect
       style="fill:none;stroke:none;stroke-width:0.0529167"
       id="rect1"
       width="10.301826"
       height="10.301826"
       x="-12.325603"
       y="227.50426"
       inkscape:export-filename="post.svg"
       inkscape:export-xdpi="96"
       inkscape:export-ydpi="96" /><path
       d="m -7.55084,236.73041 c -0.0833,-0.10423 -0.95584,-3.51214 -0.95584,-3.73323 0,-0.0573 -0.62865,-0.73193 -1.397,-1.49922 -1.43151,-1.42954 -1.5901,-1.66869 -1.23323,-1.85969 0.10594,-0.0567 1.51108,-0.0876 3.97933,-0.0876 3.68809,0 3.82116,0.006 3.98298,0.16741 0.10514,0.10514 0.14685,0.22324 0.11213,0.3175 -0.0304,0.0825 -0.71015,1.25499 -1.51053,2.60542 -0.80038,1.35043 -1.68074,2.83633 -1.95636,3.302 -0.40414,0.6828 -0.54297,0.85159 -0.71731,0.87211 -0.11889,0.014 -0.25577,-0.0241 -0.30417,-0.0847 z m 1.71999,-3.41776 c 0.66143,-1.1145 1.17409,-2.03708 1.13925,-2.05018 -0.0498,-0.0187 -2.92732,1.52825 -3.03861,1.63362 -0.0643,0.0609 0.54287,2.49368 0.61631,2.46945 0.0442,-0.0146 0.62162,-0.9384 1.28305,-2.05289 z m -0.58985,-2.00416 c 0.85508,-0.47674 1.55469,-0.89584 1.55469,-0.93133 0,-0.0355 -1.143,-0.0645 -2.54,-0.0645 -1.45936,0 -2.54,0.0326 -2.54,0.0766 0,0.0966 1.79236,1.78603 1.89489,1.78603 0.0417,0 0.77534,-0.39006 1.63042,-0.8668 z"
       style="fill:#000000"
       id="path1-2" /></g></svg>
