<?xml version="1.0" encoding="UTF-8" standalone="no"?>
<!-- Created with Inkscape (http://www.inkscape.org/) -->

<svg
   width="10.301826mm"
   height="10.301826mm"
   viewBox="0 0 10.301826 10.301826"
   version="1.1"
   id="svg1"
   xml:space="preserve"
   xmlns:inkscape="http://www.inkscape.org/namespaces/inkscape"
   xmlns:sodipodi="http://sodipodi.sourceforge.net/DTD/sodipodi-0.dtd"
   xmlns="http://www.w3.org/2000/svg"
   xmlns:svg="http://www.w3.org/2000/svg"><sodipodi:namedview
     id="namedview1"
     pagecolor="#ffffff"
     bordercolor="#000000"
     borderopacity="0.25"
     inkscape:showpageshadow="2"
     inkscape:pageopacity="0.0"
     inkscape:pagecheckerboard="0"
     inkscape:deskcolor="#d1d1d1"
     inkscape:document-units="mm"><inkscape:page
       x="0"
       y="0"
       width="10.301826"
       height="10.301826"
       id="page2"
       margin="0"
       bleed="0" /></sodipodi:namedview><defs
     id="defs1" /><g
     inkscape:label="Layer 1"
     inkscape:groupmode="layer"
     id="layer1"
     transform="translate(25.360097,-236.8848)"><rect
       style="fill:none;stroke:none;stroke-width:0.0529167"
       id="rect1"
       width="10.301826"
       height="10.301826"
       x="-25.360098"
       y="236.8848"
       inkscape:export-filename="explore.svg"
       inkscape:export-xdpi="96"
       inkscape:export-ydpi="96" /><path
       d="m -17.606337,245.21997 -0.92148,-0.92434 -0.30475,0.19085 c -0.6259,0.39197 -1.103,0.51489 -1.99807,0.51462 -0.630388,-1.9e-4 -0.8949,-0.023 -1.41221,-0.26792 -0.65448,-0.30982 -1.25905,-0.8345 -1.56693,-1.35986 -1.10987,-1.89385 -0.40567,-4.20503 1.56176,-5.12571 0.72749,-0.34043 1.77347,-0.41992 2.48753,-0.18903 1.62744,0.52622 2.60081,1.94183 2.51105,3.65194 -0.032,0.60965 -0.130329,1.06612 -0.349506,1.44127 l -0.360594,0.61721 0.8773,0.87016 c 0.48251,0.47859 0.91417,0.93683 0.95926,1.01832 0.12479,0.22559 -0.0526,0.48684 -0.33059,0.48684 -0.18156,0 -0.42945,-0.19877 -1.15277,-0.92435 z m -1.95651,-1.18832 c 1.7078,-0.83861 2.13633,-3.05512 0.86313,-4.4644 -0.16584,-0.18356 -0.50359,-0.44569 -0.75056,-0.58251 -0.41285,-0.22871 -0.541274,-0.30879 -1.319714,-0.30879 -0.72759,0 -0.881996,0.0892 -1.244646,0.26769 -0.52039,0.25607 -1.05712,0.7969 -1.32385,1.33398 -0.16994,0.34217 -0.273361,0.53164 -0.272451,1.21003 9.2e-4,0.68289 0.103541,0.86186 0.274761,1.18533 0.31492,0.59507 0.58479,0.90714 1.0112,1.16933 0.60961,0.37483 0.84638,0.43545 1.62134,0.41506 0.56545,-0.0149 0.8099,-0.0632 1.14079,-0.22572 z"
       style="fill:#000000"
       id="path1-4"
       sodipodi:nodetypes="scsssssssscsssscsssssscssc" /></g></svg>
