<?xml version="1.0" encoding="UTF-8" standalone="no"?>
<!-- Created with Inkscape (http://www.inkscape.org/) -->

<svg
   width="10.301826mm"
   height="10.301826mm"
   viewBox="0 0 10.301826 10.301826"
   version="1.1"
   id="svg1"
   xml:space="preserve"
   xmlns:inkscape="http://www.inkscape.org/namespaces/inkscape"
   xmlns:sodipodi="http://sodipodi.sourceforge.net/DTD/sodipodi-0.dtd"
   xmlns="http://www.w3.org/2000/svg"
   xmlns:svg="http://www.w3.org/2000/svg"><sodipodi:namedview
     id="namedview1"
     pagecolor="#ffffff"
     bordercolor="#000000"
     borderopacity="0.25"
     inkscape:showpageshadow="2"
     inkscape:pageopacity="0.0"
     inkscape:pagecheckerboard="0"
     inkscape:deskcolor="#d1d1d1"
     inkscape:document-units="mm"><inkscape:page
       x="0"
       y="0"
       width="10.301826"
       height="10.301826"
       id="page2"
       margin="0"
       bleed="0" /></sodipodi:namedview><defs
     id="defs1" /><g
     inkscape:label="Layer 1"
     inkscape:groupmode="layer"
     id="layer1"
     transform="translate(25.360097,-236.8848)"><rect
       style="fill:#ffffff;stroke:none;stroke-width:0.0529167"
       id="rect1"
       width="10.301826"
       height="10.301826"
       x="-25.360098"
       y="236.8848" /><path
       d="m -24.046041,246.12465 c -0.08414,-0.0225 -0.188911,-0.13545 -0.232833,-0.25097 -0.101984,-0.26824 -0.105018,-3.84716 -0.0035,-4.1142 0.042,-0.11048 0.945323,-1.02912 2.007377,-2.04143 1.486305,-1.41669 1.974244,-1.83478 2.118754,-1.81548 0.107957,0.0144 1.017982,0.81363 2.14129,1.88052 l 1.953541,1.85545 v 2.18948 2.18949 l -0.232833,0.0919 c -0.15215,0.06 -0.701565,0.0755 -1.58549,0.0445 -1.153376,-0.0404 -1.368544,-0.0691 -1.460499,-0.19484 -0.07545,-0.10319 -0.107844,-0.51138 -0.107844,-1.35897 0,-1.09339 -0.0163,-1.22778 -0.16718,-1.37867 -0.389251,-0.38925 -0.969698,-0.30852 -1.208522,0.16809 -0.119449,0.23838 -0.14806,0.52063 -0.148166,1.46169 -1.29e-4,1.14378 -0.0039,1.16771 -0.197651,1.24136 -0.204381,0.0777 -2.605838,0.10446 -2.876456,0.032 z"
       style="fill:#000000"
       id="path1-4-7"
       sodipodi:nodetypes="cssssscccccsssssscc" /></g></svg>
