<?xml version="1.0" encoding="UTF-8" standalone="no"?>
<!-- Created with Inkscape (http://www.inkscape.org/) -->

<svg
   width="10.301825mm"
   height="10.301826mm"
   viewBox="0 0 10.301825 10.301826"
   version="1.1"
   id="svg1"
   xml:space="preserve"
   sodipodi:docname="notifications_active.svg"
   inkscape:version="1.4 (86a8ad7, 2024-10-11)"
   xmlns:inkscape="http://www.inkscape.org/namespaces/inkscape"
   xmlns:sodipodi="http://sodipodi.sourceforge.net/DTD/sodipodi-0.dtd"
   xmlns="http://www.w3.org/2000/svg"
   xmlns:svg="http://www.w3.org/2000/svg"><sodipodi:namedview
     id="namedview1"
     pagecolor="#ffffff"
     bordercolor="#000000"
     borderopacity="0.25"
     inkscape:showpageshadow="2"
     inkscape:pageopacity="0.0"
     inkscape:pagecheckerboard="0"
     inkscape:deskcolor="#d1d1d1"
     inkscape:document-units="mm"
     inkscape:zoom="6.6968815"
     inkscape:cx="8.1381163"
     inkscape:cy="34.568329"
     inkscape:window-width="2400"
     inkscape:window-height="1261"
     inkscape:window-x="-9"
     inkscape:window-y="1347"
     inkscape:window-maximized="1"
     inkscape:current-layer="layer1"><inkscape:page
       x="0"
       y="0"
       width="10.301825"
       height="10.301826"
       id="page2"
       margin="0"
       bleed="0" /></sodipodi:namedview><defs
     id="defs1" /><g
     inkscape:label="Layer 1"
     inkscape:groupmode="layer"
     id="layer1"
     transform="translate(13.474482,-228.23075)"><rect
       style="fill:none;stroke:none;stroke-width:0.0529167"
       id="rect1"
       width="10.301826"
       height="10.301826"
       x="-13.474483"
       y="228.23074"
       inkscape:export-filename="notifications.svg"
       inkscape:export-xdpi="96"
       inkscape:export-ydpi="96" /><path
       d="m -8.6420693,237.07894 c -0.29079,-0.14276 -2.8972697,-2.45765 -3.2859697,-2.91837 -0.71018,-0.84174 -0.90439,-2.1153 -0.46414,-3.04367 0.44215,-0.93239 1.33877,-1.524 2.30971,-1.524 0.5636597,0 0.9182097,0.11777 1.4188997,0.47134 l 0.39343,0.27783 0.1864,-0.19841 c 0.77176,-0.82151 2.5537,-0.68264 3.38466,0.26376 0.46212,0.52634 0.67803,1.08893 0.67844,1.76781 7.4e-4,1.24092 -0.34281,1.77912 -2.17031,3.40002 -1.85413,1.64453 -1.99199,1.7291 -2.45112,1.50369 z"
       style="fill:#da1111;fill-opacity:1"
       id="path1-5"
       sodipodi:nodetypes="cccsccccccc" /></g></svg>
