<?xml version="1.0" encoding="UTF-8" standalone="no"?>
<!-- Created with Inkscape (http://www.inkscape.org/) -->

<svg
   width="10.301826mm"
   height="10.301826mm"
   viewBox="0 0 10.301826 10.301826"
   version="1.1"
   id="svg1"
   xml:space="preserve"
   xmlns:inkscape="http://www.inkscape.org/namespaces/inkscape"
   xmlns:sodipodi="http://sodipodi.sourceforge.net/DTD/sodipodi-0.dtd"
   xmlns="http://www.w3.org/2000/svg"
   xmlns:svg="http://www.w3.org/2000/svg"><sodipodi:namedview
     id="namedview1"
     pagecolor="#ffffff"
     bordercolor="#000000"
     borderopacity="0.25"
     inkscape:showpageshadow="2"
     inkscape:pageopacity="0.0"
     inkscape:pagecheckerboard="0"
     inkscape:deskcolor="#d1d1d1"
     inkscape:document-units="mm"><inkscape:page
       x="0"
       y="0"
       width="10.301826"
       height="10.301826"
       id="page2"
       margin="0"
       bleed="0" /></sodipodi:namedview><defs
     id="defs1" /><g
     inkscape:label="Layer 1"
     inkscape:groupmode="layer"
     id="layer1"
     transform="translate(24.975881,-218.44237)"><rect
       style="fill:none;stroke:none;stroke-width:0.0529167"
       id="rect1"
       width="10.301826"
       height="10.301826"
       x="-24.975882"
       y="218.44237"
       inkscape:export-filename="explore.svg"
       inkscape:export-xdpi="96"
       inkscape:export-ydpi="96" /><path
       d="m -21.706569,227.66032 c -0.72151,-0.084 -1.250122,-0.31509 -1.62791,-0.7556 -0.479412,-0.559 -0.614439,-0.71501 -0.615135,-3.31745 -6.02e-4,-2.25234 0.0057,-2.34215 0.194417,-2.75167 0.247638,-0.5375 0.54935,-0.83171 1.074958,-1.12973 0.481327,-0.27291 1.907608,-0.22494 2.83633,-0.22494 0.997019,0.0394 2.310273,-0.12976 2.908755,0.25869 0.491841,0.31923 0.840335,0.70189 1.041945,1.2365 0.18184,0.4822 0.26355,3.62719 0.11852,4.56192 -0.16168,1.04211 -0.75203,1.67027 -1.60551,1.98028 -0.47795,0.17362 -3.41071,0.24858 -4.32637,0.142 z m 3.91166,-0.78208 c 0.55244,-0.11783 1.09954,-0.61627 1.24279,-1.13225 0.0554,-0.19944 0.0941,-1.08822 0.0944,-2.16452 5.2e-4,-2.03212 -0.0794,-2.50885 -0.48438,-2.88779 -0.51065,-0.47787 -0.60009,-0.49308 -2.90033,-0.49308 -2.33174,0 -2.46831,0.0234 -2.93454,0.50224 -0.42293,0.43439 -0.46786,0.74847 -0.43806,3.06211 0,0 -0.05345,1.60426 0.06925,2.00246 0.122705,0.3982 0.19002,0.42744 0.19002,0.42744 0.23632,0.35683 0.57965,0.58845 1.03753,0.69992 0.41605,0.10128 3.6314,0.0884 4.12333,-0.0165 z m -2.34671,-1.02614 c -0.0211,-0.0582 -0.0485,-0.50588 -0.0608,-0.99483 l -0.0224,-0.889 -0.9556,-0.024 c -0.92278,-0.0231 -0.95885,-0.0311 -1.0506,-0.23249 -0.0778,-0.17079 -0.0677,-0.23873 0.056,-0.37544 0.12918,-0.14274 0.28137,-0.17039 1.0506,-0.19085 l 0.89954,-0.0239 0.0152,-0.762 c 0.008,-0.4191 0.0179,-0.847 0.0212,-0.95089 0.004,-0.12857 0.0739,-0.20594 0.21873,-0.24228 0.39421,-0.0989 0.46457,0.0641 0.46457,1.07654 v 0.92096 h 0.9144 c 0.9649,0 1.1176,0.053 1.1176,0.38757 0,0.30355 -0.17868,0.36698 -1.10556,0.39246 l -0.88411,0.0243 -0.0243,0.88411 c -0.0134,0.48626 -0.0657,0.93393 -0.1162,0.99483 -0.11694,0.1409 -0.48763,0.14427 -0.53821,0.005 z"
       style="fill:#000000"
       id="path1-2"
       sodipodi:nodetypes="ssscscsssssssssssszssssssccssscccsscssscccss" /></g></svg>
