<?xml version="1.0" encoding="UTF-8" standalone="no"?>
<!-- Created with Inkscape (http://www.inkscape.org/) -->

<svg
   width="10.301825mm"
   height="10.301826mm"
   viewBox="0 0 10.301825 10.301826"
   version="1.1"
   id="svg1"
   xml:space="preserve"
   sodipodi:docname="save_active.svg"
   inkscape:version="1.4 (86a8ad7, 2024-10-11)"
   xmlns:inkscape="http://www.inkscape.org/namespaces/inkscape"
   xmlns:sodipodi="http://sodipodi.sourceforge.net/DTD/sodipodi-0.dtd"
   xmlns="http://www.w3.org/2000/svg"
   xmlns:svg="http://www.w3.org/2000/svg"><sodipodi:namedview
     id="namedview1"
     pagecolor="#ffffff"
     bordercolor="#000000"
     borderopacity="0.25"
     inkscape:showpageshadow="2"
     inkscape:pageopacity="0.0"
     inkscape:pagecheckerboard="0"
     inkscape:deskcolor="#d1d1d1"
     inkscape:document-units="mm"
     inkscape:zoom="26.787526"
     inkscape:cx="19.449351"
     inkscape:cy="19.468017"
     inkscape:window-width="2400"
     inkscape:window-height="1261"
     inkscape:window-x="-9"
     inkscape:window-y="1347"
     inkscape:window-maximized="1"
     inkscape:current-layer="layer1"><inkscape:page
       x="0"
       y="0"
       width="10.301825"
       height="10.301826"
       id="page2"
       margin="0"
       bleed="0" /></sodipodi:namedview><defs
     id="defs1" /><g
     inkscape:label="Layer 1"
     inkscape:groupmode="layer"
     id="layer1"
     transform="translate(-2.2597422,-227.68047)"><rect
       style="fill:none;stroke:none;stroke-width:0.0529167"
       id="rect1"
       width="10.301826"
       height="10.301826"
       x="2.2597423"
       y="227.68045"
       inkscape:export-filename="comment.svg"
       inkscape:export-xdpi="96"
       inkscape:export-ydpi="96" /><path
       d="m 4.15704,236.466 c -0.11667,-0.11666 -0.13305,-0.56426 -0.13305,-3.63462 0,-3.07035 0.0164,-3.51795 0.13305,-3.63461 0.11609,-0.1161 0.52683,-0.13305 3.2229,-0.13305 1.968,0 3.14931,0.0318 3.25362,0.0876 0.15794,0.0845 0.16376,0.21484 0.16376,3.66607 0,3.72828 -0.005,3.78162 -0.35768,3.78162 -0.085,0 -0.76651,-0.58102 -1.51455,-1.29117 -0.74805,-0.71014 -1.40433,-1.30111 -1.45842,-1.31327 -0.0541,-0.0122 -0.727,0.56867 -1.49535,1.29074 -0.76835,0.72207 -1.46095,1.31305 -1.53912,1.31328 -0.0782,2.3e-4 -0.20199,-0.0594 -0.27516,-0.13263 z"
       style="fill:#000000"
       id="path1-9"
       sodipodi:nodetypes="cssscssccsscc" /></g></svg>
